<?xml version="1.0"?>
<svg xmlns="http://www.w3.org/2000/svg" height="512px" viewBox="-2 0 442 442.567" width="512px" class=""><g><path d="m38.082031 2.914062c-3.867187 1.671876-8.898437 4.730469-10.902343 9.800782l-25.9375 65.652344c-3.402344 8.621093 2.894531 19.824218 8.734374 25.710937l41.113282-104.078125c-4.476563.167969-8.886719 1.15625-13.007813 2.914062zm0 0" data-original="#000000" class="active-path" data-old_color="#000000" fill="#FFFFFF"/><path d="m67.898438 113.046875 196.851562 78.34375 31.902344-80.757813-196.855469-78.34375-2.453125 6.207032v.015625l-26.128906 66.15625zm0 0" data-original="#000000" class="active-path" data-old_color="#000000" fill="#FFFFFF"/><path d="m186.3125 271.566406h26v171h-26zm0 0" data-original="#000000" class="active-path" data-old_color="#000000" fill="#FFFFFF"/><path d="m61.941406 442.566406h25.078125l78.496094-185.449218-12.285156-22.21875zm0 0" data-original="#000000" class="active-path" data-old_color="#000000" fill="#FFFFFF"/><path d="m426.332031 197.195312-45.429687-18.082031-8.039063 20.351563 45.457031 18.09375c2.03125.808594 3.464844 2.65625 3.734376 4.828125l1.101562 8.726562 15.988281-40.480469-6.757812 5.597657c-1.691407 1.40625-4.011719 1.773437-6.054688.964843zm0 0" data-original="#000000" class="active-path" data-old_color="#000000" fill="#FFFFFF"/><path d="m200.414062 182.652344c-20.75-.269532-38.292968 15.308594-40.480468 35.945312-.011719.222656-.035156.445313-.070313.667969-.078125.8125-.136719 1.515625-.167969 2.347656l21.035157 37.953125h39.367187l21.03125-37.972656c-.765625-22.023438-18.375-38.941406-40.714844-38.941406zm0 0" data-original="#000000" class="active-path" data-old_color="#000000" fill="#FFFFFF"/><path d="m53.164062 27.40625-22.5625 57.121094 30.816407 12.265625 22.5625-57.121094zm0 0" data-original="#000000" class="active-path" data-old_color="#000000" fill="#FFFFFF"/><path d="m303.132812 126.890625-22.5625 57.121094 73.882813 29.402343 5.054687-12.796874v-.007813l.003907-.003906 12.441406-31.5.003906-.011719.003907-.007812 5.054687-12.792969zm0 0" data-original="#000000" class="active-path" data-old_color="#000000" fill="#FFFFFF"/><path d="m235.46875 256.832031 78.617188 185.734375h25.074218l-91.414062-207.953125zm0 0" data-original="#000000" class="active-path" data-old_color="#000000" fill="#FFFFFF"/></g> </svg>
